<?xml version="1.0" encoding="UTF-8"?>
<svg xmlns="http://www.w3.org/2000/svg" xmlns:xlink="http://www.w3.org/1999/xlink" width="600px" height="360px" viewBox="0 0 600 360" version="1.1">
<g id="surface1">
<path style=" stroke:none;fill-rule:nonzero;fill:rgb(0%,0%,0%);fill-opacity:1;" d="M 423.984375 0.421875 C 423.796875 0.75 423.75 1.078125 423.796875 1.125 C 423.890625 1.21875 426.375 1.96875 429.328125 2.765625 C 435.09375 4.359375 442.125 7.171875 443.015625 8.25 C 443.296875 8.625 443.90625 8.90625 444.375 8.90625 C 444.796875 8.90625 447.09375 10.3125 449.4375 12 C 454.265625 15.46875 458.625 20.296875 460.78125 24.5625 C 461.53125 26.109375 462.609375 27.609375 463.125 27.984375 C 465.5625 29.71875 467.8125 44.953125 467.859375 60.46875 C 467.859375 66.046875 467.8125 66.328125 466.265625 69.84375 C 465.75 71.0625 465.234375 73.40625 465.09375 75.375 C 464.8125 79.453125 464.953125 79.6875 470.484375 83.25 C 475.453125 86.4375 476.203125 87.84375 474.609375 90.9375 C 473.765625 92.578125 472.359375 92.765625 469.21875 91.640625 C 466.5 90.703125 464.25 90.75 461.71875 91.921875 C 456.796875 94.171875 448.96875 96.609375 443.90625 97.453125 C 442.21875 97.734375 439.03125 98.71875 436.875 99.609375 C 432.234375 101.484375 432.28125 101.484375 429.375 100.453125 C 427.5 99.796875 426.984375 99.75 426.375 100.265625 C 425.25 101.203125 425.4375 102.09375 427.3125 104.765625 L 428.953125 107.203125 L 428.25 111.09375 C 427.359375 115.734375 427.21875 130.359375 428.015625 137.90625 C 428.296875 140.671875 428.390625 143.484375 428.25 144.140625 C 427.453125 147.234375 421.21875 151.875 417.796875 151.875 C 416.203125 151.875 414.375 153.234375 414.375 154.40625 C 414.375 154.734375 414.84375 155.34375 415.40625 155.71875 C 416.625 156.5625 416.25 157.3125 414.375 157.734375 C 413.578125 157.921875 412.734375 158.484375 412.453125 159 C 412.078125 159.65625 411.84375 159.796875 411.609375 159.421875 C 410.859375 158.203125 402.75 162.46875 399.09375 166.03125 C 397.265625 167.8125 396.9375 167.90625 393.703125 168.140625 C 389.671875 168.421875 385.875 169.59375 383.625 171.328125 C 380.8125 173.484375 380.4375 174.515625 380.25 180.046875 C 380.015625 185.71875 380.34375 186.703125 382.734375 187.6875 C 383.765625 188.15625 384.5625 188.90625 384.984375 189.9375 C 385.828125 191.90625 390.234375 196.03125 391.3125 195.84375 C 391.96875 195.703125 392.15625 195 392.34375 192 C 392.625 187.546875 392.8125 187.359375 399.703125 184.6875 C 406.03125 182.203125 409.453125 181.5 416.953125 181.125 C 425.015625 180.75 428.671875 181.3125 430.453125 183.328125 C 431.34375 184.265625 431.71875 185.15625 431.625 186 C 431.4375 187.59375 429.375 188.15625 424.96875 187.828125 C 422.34375 187.640625 421.59375 187.40625 420.9375 186.5625 C 420.28125 185.671875 420.09375 185.625 419.578125 186.28125 C 418.828125 187.21875 415.078125 187.96875 411.1875 187.96875 C 406.453125 187.96875 404.484375 189.328125 406.359375 191.203125 C 407.53125 192.375 407.578125 193.59375 406.59375 195.609375 C 405.328125 198.09375 404.15625 199.3125 401.390625 201.140625 C 396.84375 204.140625 395.8125 207.09375 398.4375 209.53125 C 400.078125 211.078125 400.21875 212.484375 398.8125 213.46875 C 397.96875 214.078125 397.78125 214.78125 397.59375 217.96875 C 397.5 220.03125 397.171875 221.859375 396.984375 222 C 396.75 222.140625 395.4375 221.671875 394.125 220.921875 C 392.0625 219.84375 391.59375 219.328125 391.265625 217.921875 C 390.5625 214.921875 389.484375 214.3125 379.03125 211.171875 C 375.984375 210.28125 373.359375 209.625 373.21875 209.71875 C 372.75 210.1875 376.265625 213.9375 389.625 227.15625 C 397.171875 234.65625 404.25 241.359375 405.375 242.0625 C 406.78125 242.953125 408.65625 243.515625 411.46875 243.984375 C 413.71875 244.3125 416.15625 244.828125 416.859375 245.109375 C 418.546875 245.765625 421.828125 245.765625 427.734375 245.109375 C 433.125 244.5 434.859375 244.78125 438.421875 247.078125 L 440.71875 248.484375 L 439.03125 250.546875 C 436.265625 253.875 432.1875 264.234375 431.4375 269.671875 C 431.015625 272.765625 431.71875 273.375 438.1875 275.390625 C 444.796875 277.5 446.671875 278.390625 448.3125 280.359375 C 450.046875 282.375 451.734375 285.84375 452.109375 288.09375 C 452.625 291.046875 453.984375 294.328125 457.6875 301.828125 C 461.484375 309.328125 464.765625 316.453125 466.921875 321.796875 L 468.28125 325.078125 L 465.890625 322.5 C 463.171875 319.453125 458.25 313.546875 452.484375 306.28125 C 450.234375 303.375 444.75 296.953125 440.390625 291.984375 C 435.984375 286.96875 429.75 279.84375 426.5625 276.09375 C 414.140625 261.65625 391.265625 236.15625 384.796875 229.6875 C 381.09375 225.9375 375.75 220.96875 372.9375 218.671875 C 370.078125 216.328125 365.296875 212.34375 362.203125 209.765625 C 353.671875 202.546875 352.359375 201.5625 351.234375 201.5625 C 350.015625 201.5625 348.515625 203.4375 346.5 207.46875 C 344.625 211.171875 342.1875 213.28125 335.34375 217.125 C 324.140625 223.359375 321.84375 224.8125 319.921875 226.734375 C 318.140625 228.46875 317.53125 228.75 314.25 229.40625 C 307.828125 230.625 294.421875 231.703125 286.40625 231.703125 C 278.90625 231.703125 278.484375 231.65625 272.8125 229.96875 C 265.125 227.71875 260.203125 227.390625 234.5625 227.296875 C 211.78125 227.25 211.875 227.25 204.796875 230.90625 C 199.734375 233.53125 189.75 240.140625 185.625 243.609375 C 178.3125 249.75 171.28125 259.359375 169.21875 266.015625 C 167.15625 272.578125 167.109375 272.671875 162.9375 274.640625 C 158.25 276.890625 150.84375 279.796875 148.921875 280.171875 C 147.65625 280.40625 147.515625 280.359375 147.75 279.46875 C 147.890625 278.953125 156.28125 265.359375 166.40625 249.28125 C 176.53125 233.203125 185.4375 218.8125 186.1875 217.265625 C 187.078125 215.34375 187.5 213.703125 187.5 212.0625 C 187.5 210.140625 187.78125 209.296875 189 207.609375 C 191.34375 204.375 207.140625 188.71875 210 186.84375 C 211.453125 185.90625 216.328125 183.609375 220.921875 181.6875 C 230.765625 177.5625 233.34375 176.109375 238.359375 172.078125 C 240.421875 170.390625 245.0625 166.734375 248.671875 163.921875 C 252.28125 161.109375 257.625 156.703125 260.53125 154.171875 L 265.78125 149.484375 L 265.78125 133.6875 C 265.78125 125.015625 265.546875 117.046875 265.3125 116.015625 C 265.078125 114.890625 264.328125 113.625 263.4375 112.828125 C 261.796875 111.375 260.34375 111.09375 260.859375 112.359375 C 261.515625 114.09375 261.703125 118.453125 261.09375 119.53125 C 260.53125 120.5625 260.34375 120.609375 256.828125 120.328125 C 251.859375 119.953125 248.765625 119.015625 242.25 115.921875 C 239.203125 114.515625 236.4375 113.4375 236.0625 113.578125 C 234.65625 114.140625 233.765625 116.296875 233.671875 119.4375 C 233.53125 123.46875 233.578125 123.28125 232.546875 123.28125 C 231.234375 123.28125 229.359375 120.796875 228.515625 118.03125 C 227.0625 113.109375 228 105.703125 230.390625 103.3125 C 231.984375 101.71875 233.8125 101.859375 238.546875 104.015625 C 244.03125 106.5 247.96875 107.625 252.234375 108.046875 L 255.84375 108.375 L 256.875 104.015625 C 258.515625 97.125 258.609375 94.734375 257.34375 91.359375 C 256.078125 87.75 253.546875 83.484375 251.671875 81.609375 C 249.984375 79.875 246.421875 78.75 242.765625 78.75 C 240.5625 78.75 239.8125 78.984375 238.6875 79.921875 C 237.375 81 237.1875 81.046875 236.484375 80.34375 C 236.109375 79.921875 235.265625 78.609375 234.65625 77.390625 C 233.296875 74.765625 232.40625 73.921875 229.6875 72.703125 C 225.75 70.921875 220.96875 71.8125 217.3125 75.046875 C 213.703125 78.234375 214.828125 79.171875 220.125 77.296875 C 224.53125 75.75 227.765625 76.640625 228.515625 79.546875 C 228.890625 81.1875 228.140625 81.890625 225.421875 82.265625 C 222.5625 82.6875 220.3125 84.375 220.3125 86.15625 C 220.3125 87.890625 220.6875 88.3125 223.03125 89.484375 C 224.765625 90.375 225.046875 90.703125 224.8125 91.546875 C 224.53125 92.53125 224.015625 95.34375 222.375 104.296875 C 220.921875 112.125 218.015625 119.90625 216.140625 120.9375 C 215.0625 121.5 212.8125 121.546875 212.0625 121.03125 C 210.796875 120.234375 210.328125 118.125 210.09375 112.40625 C 209.953125 109.078125 209.71875 106.265625 209.484375 106.125 C 208.828125 105.75 207.1875 107.953125 206.953125 109.640625 C 205.921875 116.4375 204.84375 118.5 201.328125 120.046875 C 199.078125 121.078125 194.53125 121.21875 192.75 120.28125 C 190.78125 119.25 189.84375 117.984375 188.765625 114.75 C 187.453125 110.953125 186.5625 110.71875 185.25 113.859375 C 183.703125 117.609375 178.40625 120.703125 174.515625 120.140625 C 172.6875 119.859375 172.546875 120.46875 173.90625 122.203125 C 174.9375 123.5625 175.078125 124.453125 174.328125 124.921875 C 173.53125 125.4375 171.703125 123.375 169.453125 119.4375 C 168.28125 117.46875 166.921875 115.59375 166.453125 115.3125 C 165.328125 114.75 159.375 114.703125 159.375 115.265625 C 159.375 116.0625 163.03125 118.96875 164.484375 119.296875 C 166.171875 119.671875 168.1875 121.96875 171.140625 127.03125 C 172.265625 128.953125 174.234375 131.625 175.546875 132.984375 C 178.546875 136.03125 180.46875 136.640625 184.453125 135.703125 C 188.578125 134.71875 189.375 134.8125 192.09375 136.6875 C 193.5 137.578125 195.375 138.609375 196.3125 138.9375 C 197.625 139.40625 198.09375 139.875 198.375 141 C 198.609375 141.84375 198.890625 142.5 199.078125 142.5 C 199.21875 142.5 201.421875 141.5625 204 140.390625 C 212.15625 136.640625 222.703125 134.53125 230.0625 135.1875 C 235.59375 135.703125 238.125 137.109375 238.125 139.6875 C 238.125 141.46875 236.765625 142.3125 233.4375 142.640625 C 230.578125 142.921875 225.75 144.703125 218.671875 148.125 C 212.296875 151.21875 210.609375 152.53125 206.4375 157.828125 C 201.5625 164.015625 201.5625 164.0625 197.484375 164.0625 C 193.640625 164.0625 193.453125 163.921875 192.890625 160.3125 C 192.421875 157.3125 191.90625 156.65625 190.171875 156.46875 L 188.671875 156.328125 L 188.8125 153.609375 C 188.90625 152.15625 188.859375 150.9375 188.71875 150.9375 C 188.578125 150.9375 187.40625 151.875 186.140625 153.046875 C 183.46875 155.34375 183.046875 155.484375 175.453125 155.8125 C 169.875 156.046875 167.015625 156.890625 165.28125 158.8125 C 164.390625 159.84375 161.109375 170.53125 161.53125 171.140625 C 161.625 171.328125 162.890625 171.75 164.34375 172.078125 C 167.203125 172.734375 167.90625 173.34375 166.59375 174.046875 C 164.8125 175.03125 161.53125 178.453125 157.96875 183 C 155.90625 185.625 152.625 189.46875 150.65625 191.625 L 147.046875 195.46875 L 150.515625 197.109375 C 152.4375 197.953125 156.75 199.59375 160.078125 200.671875 C 168.375 203.34375 168.65625 203.4375 168.9375 204.140625 C 169.125 204.75 168.09375 209.390625 167.671875 209.859375 C 167.15625 210.328125 149.4375 206.765625 135.46875 203.390625 C 117.75 199.03125 109.171875 195.328125 102.890625 189.328125 L 99.1875 185.71875 L 102.28125 182.390625 C 106.546875 177.890625 107.203125 176.859375 106.359375 176.015625 C 105.328125 174.984375 99.9375 174.328125 91.6875 174.28125 C 81.515625 174.1875 79.734375 174.703125 75.46875 178.96875 C 71.625 182.859375 60.609375 199.3125 50.8125 216 C 24.609375 260.390625 11.859375 282.234375 10.78125 284.4375 C 10.03125 285.984375 8.4375 289.921875 7.265625 293.25 C -2.203125 319.3125 -2.296875 344.34375 7.03125 357.84375 L 8.484375 360 L 600.046875 360 L 599.71875 358.921875 C 597.5625 351.9375 579.703125 323.953125 573.796875 318.28125 C 569.625 314.25 564.75 311.015625 553.59375 304.921875 C 542.296875 298.6875 532.640625 292.921875 522.984375 286.59375 C 508.96875 277.40625 505.734375 274.546875 502.078125 268.3125 C 500.859375 266.25 498.890625 263.34375 497.671875 261.890625 C 495.375 259.078125 493.3125 255.09375 490.3125 247.5 C 488.53125 243.046875 486.1875 238.171875 483.46875 233.4375 C 482.34375 231.46875 482.25 231.046875 482.53125 227.109375 C 482.671875 224.765625 483.046875 218.859375 483.28125 213.984375 C 483.9375 202.875 484.3125 201.046875 488.34375 189.796875 C 490.125 184.78125 491.765625 180.046875 491.953125 179.203125 C 492.421875 176.859375 493.875 175.3125 495.65625 175.3125 C 497.90625 175.3125 501.140625 173.4375 502.59375 171.328125 C 503.484375 170.0625 504.140625 168.28125 504.5625 165.703125 C 505.265625 161.859375 506.296875 158.8125 509.296875 151.875 C 512.203125 145.125 513.28125 139.6875 513.609375 130.546875 C 513.796875 125.015625 513.703125 121.921875 513.28125 120.515625 C 512.625 117.984375 510.1875 115.40625 508.171875 115.03125 C 506.15625 114.609375 506.0625 114.234375 507.234375 111.9375 C 509.0625 108.328125 509.484375 103.875 510.046875 82.03125 L 510.609375 61.171875 L 507.234375 53.671875 C 503.34375 44.953125 499.21875 37.875 495.5625 33.703125 C 492.328125 29.953125 490.40625 28.40625 486.515625 26.484375 C 484.828125 25.640625 480.796875 22.921875 477.5625 20.484375 C 463.453125 9.890625 453.046875 5.015625 437.671875 1.828125 C 429.5625 0.1875 424.5 -0.328125 423.984375 0.421875 Z M 245.8125 84.84375 C 246.421875 85.453125 245.765625 86.671875 244.59375 87.140625 C 243.1875 87.703125 241.359375 89.71875 239.8125 92.390625 C 237.609375 96.234375 235.78125 97.078125 235.78125 94.265625 C 235.78125 92.671875 237.421875 86.203125 238.171875 84.796875 C 238.640625 83.859375 238.921875 83.8125 242.015625 84.140625 C 243.890625 84.28125 245.578125 84.609375 245.8125 84.84375 Z M 467.4375 100.640625 C 468.703125 101.765625 468.609375 105.328125 467.25 106.78125 C 466.359375 107.71875 466.265625 107.953125 466.875 108.28125 C 468.5625 109.21875 471.5625 111.609375 471.5625 111.984375 C 471.5625 112.21875 471.09375 112.265625 470.53125 112.078125 C 469.921875 111.890625 467.34375 111.09375 464.765625 110.296875 C 462.1875 109.453125 458.390625 108.421875 456.328125 107.953125 C 453.796875 107.390625 452.578125 106.875 452.578125 106.453125 C 452.578125 105.5625 457.6875 102.796875 462.375 101.203125 C 466.875 99.609375 466.359375 99.65625 467.4375 100.640625 Z M 448.875 113.625 C 449.859375 115.125 451.078125 116.390625 451.828125 116.625 C 452.671875 116.90625 455.25 116.90625 459.046875 116.578125 C 463.6875 116.203125 465.140625 116.203125 465.609375 116.671875 C 466.359375 117.421875 465.28125 118.125 463.265625 118.125 C 459.703125 118.125 458.0625 120.046875 460.125 121.734375 C 461.390625 122.71875 461.4375 122.765625 460.59375 123.703125 C 460.125 124.21875 459.84375 124.96875 460.03125 125.390625 C 460.734375 127.21875 465.140625 127.40625 470.859375 125.8125 C 472.40625 125.34375 474.421875 124.96875 475.3125 124.96875 C 476.71875 124.921875 477.046875 125.15625 477.75 126.5625 C 480.1875 131.34375 477 139.546875 472.125 141.140625 C 471.1875 141.46875 469.828125 142.265625 469.125 142.96875 C 467.671875 144.421875 464.203125 145.546875 462.609375 145.078125 C 460.96875 144.5625 457.03125 141.46875 455.0625 139.078125 C 452.203125 135.65625 449.203125 130.640625 448.640625 128.4375 C 448.359375 127.265625 447 124.171875 445.6875 121.59375 L 443.296875 116.859375 L 444.28125 115.546875 C 444.84375 114.84375 445.3125 113.671875 445.3125 112.96875 C 445.3125 110.203125 446.765625 110.4375 448.875 113.625 Z M 423.140625 165.328125 C 424.359375 167.390625 424.359375 167.484375 423.46875 168.140625 C 421.78125 169.359375 421.171875 168.75 421.03125 165.5625 C 420.890625 162.140625 421.21875 162.09375 423.140625 165.328125 Z M 425.390625 172.453125 C 424.96875 173.15625 421.640625 174.84375 420.65625 174.84375 C 419.625 174.84375 421.640625 173.203125 423.84375 172.3125 C 425.484375 171.609375 425.90625 171.65625 425.390625 172.453125 Z M 414.375 173.390625 C 414.375 173.953125 403.171875 178.6875 402.609375 178.3125 C 402.375 178.171875 402.1875 177.890625 402.1875 177.703125 C 402.1875 177.140625 408.09375 174.515625 411.09375 173.71875 C 414.234375 172.875 414.375 172.875 414.375 173.390625 Z M 418.59375 195 C 418.59375 196.078125 416.90625 197.34375 415.5 197.34375 C 414.9375 197.34375 414.046875 196.96875 413.484375 196.5 C 412.59375 195.796875 412.546875 195.609375 413.109375 194.859375 C 413.859375 193.828125 416.625 193.125 417.796875 193.6875 C 418.21875 193.921875 418.59375 194.484375 418.59375 195 Z M 410.765625 210.28125 C 410.90625 210.46875 410.765625 211.3125 410.390625 212.203125 C 410.015625 213.140625 409.6875 214.875 409.6875 216.046875 C 409.6875 217.265625 409.40625 218.671875 409.03125 219.1875 C 408.375 220.03125 408.328125 220.03125 407.859375 218.765625 C 407.578125 218.015625 407.34375 216.1875 407.34375 214.640625 C 407.34375 212.484375 407.53125 211.6875 408.28125 210.9375 C 409.21875 210 410.203125 209.71875 410.765625 210.28125 Z M 410.765625 210.28125 "/>
<path style=" stroke:none;fill-rule:nonzero;fill:rgb(0%,0%,0%);fill-opacity:1;" d="M 365.25 23.90625 C 362.4375 25.171875 359.390625 28.21875 351.515625 37.546875 C 340.6875 50.484375 338.71875 53.671875 337.265625 60.703125 C 335.390625 69.84375 335.15625 94.6875 336.796875 105.65625 C 337.40625 109.5 337.453125 111.046875 337.078125 111.890625 C 336.421875 113.34375 336.5625 113.578125 339.65625 115.546875 C 341.0625 116.4375 342.46875 117.703125 342.75 118.359375 C 343.40625 119.8125 344.25 119.859375 345.703125 118.40625 C 347.4375 116.671875 347.53125 114.65625 346.453125 104.859375 C 343.359375 76.40625 343.453125 66.140625 346.875 58.078125 C 348.5625 54.046875 353.953125 45.140625 360.9375 34.6875 C 368.765625 22.96875 369.09375 22.171875 365.25 23.90625 Z M 365.25 23.90625 "/>
<path style=" stroke:none;fill-rule:nonzero;fill:rgb(0%,0%,0%);fill-opacity:1;" d="M 196.359375 72.234375 C 194.296875 72.796875 192.421875 74.671875 192.796875 75.65625 C 193.03125 76.265625 194.015625 76.40625 198.28125 76.40625 C 202.828125 76.40625 203.53125 76.5 204.375 77.34375 C 205.96875 78.9375 205.546875 79.96875 202.734375 81.796875 C 201.140625 82.78125 200.15625 83.765625 200.15625 84.28125 C 200.15625 85.78125 202.5 89.90625 204.234375 91.453125 C 205.546875 92.578125 205.921875 93.28125 205.96875 94.59375 C 206.015625 96.890625 207.234375 97.125 209.109375 95.109375 C 211.828125 92.203125 212.109375 91.21875 212.109375 84.84375 C 212.109375 79.640625 211.96875 78.75 211.03125 76.734375 C 209.390625 73.453125 206.765625 72.046875 201.84375 71.90625 C 199.734375 71.8125 197.296875 72 196.359375 72.234375 Z M 196.359375 72.234375 "/>
<path style=" stroke:none;fill-rule:nonzero;fill:rgb(0%,0%,0%);fill-opacity:1;" d="M 172.96875 84 C 169.546875 85.734375 170.15625 86.53125 174.796875 86.34375 C 179.578125 86.203125 180.65625 86.71875 181.125 89.484375 C 181.265625 90.5625 181.96875 92.625 182.625 94.078125 C 183.28125 95.578125 184.078125 97.921875 184.40625 99.328125 C 185.71875 105.09375 186.84375 101.34375 186.46875 92.53125 C 186.28125 88.78125 186 86.859375 185.484375 86.0625 C 183.515625 83.0625 177 81.984375 172.96875 84 Z M 172.96875 84 "/>
<path style=" stroke:none;fill-rule:nonzero;fill:rgb(0%,0%,0%);fill-opacity:1;" d="M 164.53125 91.3125 C 161.0625 94.921875 158.625 98.296875 159.09375 98.765625 C 159.46875 99.1875 165.140625 93.328125 167.25 90.328125 C 169.546875 87.09375 168.09375 87.609375 164.53125 91.3125 Z M 164.53125 91.3125 "/>
<path style=" stroke:none;fill-rule:nonzero;fill:rgb(0%,0%,0%);fill-opacity:1;" d="M 368.71875 92.34375 C 366.328125 93.09375 362.296875 97.6875 361.59375 100.453125 C 361.3125 101.71875 361.359375 101.71875 363.75 101.71875 C 365.4375 101.71875 366.703125 101.390625 367.828125 100.734375 C 369.234375 99.84375 369.984375 99.75 373.3125 99.9375 C 378 100.171875 383.15625 102.28125 383.90625 104.296875 C 384.234375 105.140625 384.703125 105.46875 385.640625 105.46875 C 388.21875 105.46875 385.921875 106.40625 379.921875 107.765625 C 373.875 109.125 371.578125 109.96875 367.5 112.265625 C 366.328125 112.921875 364.96875 113.4375 364.40625 113.4375 C 362.90625 113.4375 362.71875 113.953125 363.84375 115.171875 C 364.546875 115.96875 365.390625 116.25 366.703125 116.25 C 368.34375 116.25 368.90625 115.921875 370.96875 113.859375 C 373.125 111.703125 373.359375 111.5625 373.921875 112.3125 C 374.25 112.78125 374.53125 113.4375 374.53125 113.765625 C 374.53125 114.09375 375.234375 114.703125 376.078125 115.171875 C 377.296875 115.875 378.703125 116.015625 383.53125 116.015625 C 386.765625 116.015625 389.625 116.203125 389.859375 116.390625 C 390.46875 117 388.59375 118.125 386.90625 118.125 C 386.109375 118.125 384.9375 118.5 384.375 118.96875 C 383.34375 119.8125 383.484375 120.796875 384.9375 122.953125 C 385.59375 123.84375 385.40625 124.078125 383.15625 125.4375 C 382.59375 125.765625 382.453125 126.1875 382.640625 126.75 C 382.921875 127.5 383.34375 127.59375 385.453125 127.359375 C 391.5 126.609375 395.71875 124.3125 399.703125 119.4375 C 402.515625 116.015625 403.59375 113.625 403.59375 110.71875 C 403.59375 108.328125 403.59375 108.328125 405.609375 107.4375 C 409.265625 105.796875 412.5 101.0625 412.5 97.265625 C 412.5 93.703125 410.625 91.6875 410.015625 94.546875 C 409.6875 96.046875 406.875 99.09375 404.859375 100.125 C 403.171875 101.015625 401.90625 100.734375 399.65625 98.953125 C 398.390625 97.921875 397.21875 97.5 395.25 97.265625 C 390.5625 96.75 385.921875 95.671875 380.71875 93.984375 C 375.421875 92.203125 371.015625 91.59375 368.71875 92.34375 Z M 368.71875 92.34375 "/>
<path style=" stroke:none;fill-rule:nonzero;fill:rgb(0%,0%,0%);fill-opacity:1;" d="M 208.453125 97.875 C 208.03125 98.953125 207.65625 100.734375 207.65625 101.765625 C 207.65625 103.3125 207.796875 103.640625 208.453125 103.5 C 209.625 103.265625 210.1875 100.78125 209.671875 98.109375 L 209.296875 95.859375 Z M 208.453125 97.875 "/>
<path style=" stroke:none;fill-rule:nonzero;fill:rgb(0%,0%,0%);fill-opacity:1;" d="M 162.9375 102.609375 C 161.4375 104.15625 161.484375 104.578125 163.78125 108.984375 L 165.1875 111.796875 L 165.5625 107.34375 C 166.03125 100.921875 165.515625 99.9375 162.9375 102.609375 Z M 162.9375 102.609375 "/>
<path style=" stroke:none;fill-rule:nonzero;fill:rgb(0%,0%,0%);fill-opacity:1;" d="M 154.828125 106.265625 C 152.484375 109.5 151.265625 114.28125 152.0625 117.421875 C 152.578125 119.484375 153.140625 118.3125 154.453125 112.640625 C 155.109375 109.78125 155.8125 106.875 156.09375 106.21875 C 156.703125 104.625 156.046875 104.671875 154.828125 106.265625 Z M 154.828125 106.265625 "/>
<path style=" stroke:none;fill-rule:nonzero;fill:rgb(0%,0%,0%);fill-opacity:1;" d="M 330.328125 117.890625 C 328.96875 119.203125 328.40625 122.0625 328.359375 127.265625 C 328.359375 132.703125 328.96875 136.03125 330.703125 139.921875 L 331.78125 142.265625 L 332.296875 140.90625 C 332.578125 140.15625 332.953125 137.203125 333.140625 134.34375 C 333.375 129.375 334.3125 125.578125 335.0625 126.28125 C 335.25 126.46875 335.625 127.40625 335.859375 128.34375 C 336.28125 129.75 336.609375 130.125 337.6875 130.21875 C 338.90625 130.359375 342.65625 129.09375 342.65625 128.53125 C 342.65625 128.4375 342 127.078125 341.15625 125.53125 C 337.734375 119.0625 332.671875 115.5 330.328125 117.890625 Z M 330.328125 117.890625 "/>
<path style=" stroke:none;fill-rule:nonzero;fill:rgb(0%,0%,0%);fill-opacity:1;" d="M 339.515625 133.6875 C 337.59375 135.75 336.421875 139.171875 336.375 142.96875 C 336.328125 147.234375 337.078125 149.296875 339.09375 150.28125 C 339.890625 150.703125 341.203125 151.78125 342 152.671875 C 343.078125 153.890625 343.734375 154.265625 344.296875 154.03125 C 345 153.796875 345.09375 153.328125 344.8125 151.265625 C 344.671875 149.90625 344.109375 147.515625 343.546875 145.96875 C 342.609375 143.296875 342.515625 141.515625 342.796875 135.234375 C 342.890625 133.03125 342.796875 132.890625 341.71875 132.75 C 340.921875 132.65625 340.171875 132.984375 339.515625 133.6875 Z M 339.515625 133.6875 "/>
<path style=" stroke:none;fill-rule:nonzero;fill:rgb(0%,0%,0%);fill-opacity:1;" d="M 393.234375 151.96875 C 390.796875 154.921875 387.890625 160.40625 387.328125 163.21875 L 387.046875 164.71875 L 388.640625 163.59375 C 392.484375 160.875 396.609375 157.3125 397.5 155.859375 C 398.015625 155.015625 398.4375 153.609375 398.4375 152.765625 C 398.4375 150.984375 397.359375 149.0625 396.328125 149.0625 C 396 149.0625 394.59375 150.375 393.234375 151.96875 Z M 393.234375 151.96875 "/>
<path style=" stroke:none;fill-rule:nonzero;fill:rgb(0%,0%,0%);fill-opacity:1;" d="M 404.390625 149.625 C 403.125 150.609375 402.140625 153.515625 402.609375 154.828125 C 403.265625 156.5625 404.578125 156.84375 405.609375 155.4375 C 406.078125 154.828125 407.203125 154.03125 408.1875 153.703125 C 410.625 152.953125 411.703125 151.921875 411 151.078125 C 409.5 149.25 405.9375 148.5 404.390625 149.625 Z M 404.390625 149.625 "/>
<path style=" stroke:none;fill-rule:nonzero;fill:rgb(0%,0%,0%);fill-opacity:1;" d="M 149.8125 150.84375 C 149.484375 151.875 150.234375 158.296875 150.984375 160.828125 C 151.546875 162.609375 153.515625 164.953125 154.03125 164.390625 C 154.171875 164.25 153.84375 161.71875 153.28125 158.8125 C 151.78125 151.359375 150.5625 148.453125 149.8125 150.84375 Z M 149.8125 150.84375 "/>
<path style=" stroke:none;fill-rule:nonzero;fill:rgb(0%,0%,0%);fill-opacity:1;" d="M 337.03125 167.34375 C 337.03125 167.953125 340.125 170.578125 341.484375 171.09375 C 342.234375 171.375 343.359375 171.515625 343.921875 171.328125 C 345.375 171 347.390625 172.078125 348.9375 174.140625 C 349.6875 175.078125 350.34375 175.78125 350.4375 175.640625 C 350.8125 175.3125 349.59375 169.921875 348.9375 168.890625 C 348.234375 167.765625 346.921875 167.53125 340.6875 167.203125 C 338.671875 167.109375 337.03125 167.15625 337.03125 167.34375 Z M 337.03125 167.34375 "/>
<path style=" stroke:none;fill-rule:nonzero;fill:rgb(0%,0%,0%);fill-opacity:1;" d="M 128.671875 171.890625 L 125.390625 173.53125 L 119.625 173.25 C 113.8125 172.96875 112.03125 173.296875 112.03125 174.515625 C 112.03125 175.21875 114.65625 177.796875 117.28125 179.765625 C 119.015625 181.03125 119.0625 181.03125 120.328125 180.1875 C 124.546875 177.46875 133.359375 170.15625 132.421875 170.203125 C 132.1875 170.203125 130.5 170.953125 128.671875 171.890625 Z M 128.671875 171.890625 "/>
<path style=" stroke:none;fill-rule:nonzero;fill:rgb(0%,0%,0%);fill-opacity:1;" d="M 156.5625 171.890625 C 155.484375 172.3125 153.75 174 153.75 174.65625 C 153.75 175.453125 154.921875 175.03125 156.9375 173.578125 C 159.046875 171.984375 158.859375 171.046875 156.5625 171.890625 Z M 156.5625 171.890625 "/>
<path style=" stroke:none;fill-rule:nonzero;fill:rgb(0%,0%,0%);fill-opacity:1;" d="M 143.34375 184.78125 C 140.578125 186.9375 138.328125 188.8125 138.28125 189.046875 C 138 189.984375 138.796875 192.1875 139.359375 192.1875 C 139.734375 192.1875 141.984375 189.65625 144.328125 186.5625 C 146.71875 183.46875 148.59375 180.9375 148.5 180.9375 C 148.40625 180.9375 146.0625 182.671875 143.34375 184.78125 Z M 143.34375 184.78125 "/>
</g>
</svg>
