<?xml version="1.0" encoding="UTF-8"?>
<svg xmlns="http://www.w3.org/2000/svg" xmlns:xlink="http://www.w3.org/1999/xlink" width="284px" height="400px" viewBox="0 0 284 400" version="1.1">
<g id="surface1">
<path style=" stroke:none;fill-rule:nonzero;fill:rgb(0%,0%,0%);fill-opacity:1;" d="M 157.640625 0.1875 C 144 1.375 132.679688 4 116.664062 9.6875 C 107.53125 12.9375 90.265625 20.3125 86.796875 22.46875 C 82.730469 24.96875 71.5625 35.09375 68.027344 39.5 C 62.492188 46.375 58.300781 54.90625 55.988281 63.875 C 55.488281 65.78125 54.671875 68.5 54.140625 69.90625 C 53.109375 72.6875 52.078125 76.4375 50.980469 81.40625 C 50.199219 84.96875 48.699219 89.5625 47.792969 91.40625 C 47.417969 92.0625 46.605469 93.34375 45.976562 94.21875 C 42.882812 98.3125 39.753906 107.0625 39.722656 111.65625 C 39.722656 113.9375 39.128906 115.875 38.222656 116.59375 L 37.40625 117.21875 L 38.097656 118.53125 C 38.472656 119.25 40.066406 121.34375 41.597656 123.1875 L 44.445312 126.5625 L 33.96875 139.59375 C 23.863281 152.25 22.425781 153.96875 17.609375 159.34375 C 14.730469 162.53125 14.074219 163.8125 14.074219 166.15625 C 14.074219 169.34375 16.296875 172.8125 19.328125 174.34375 C 20.019531 174.6875 20.925781 175.40625 21.394531 175.9375 C 22.863281 177.6875 22.363281 179 19.828125 180.21875 C 18.765625 180.71875 17.515625 181.6875 16.484375 182.8125 C 14.449219 185.0625 12.199219 189.21875 12.199219 190.6875 C 12.199219 193 15.796875 196.25 19.046875 196.875 C 21.488281 197.34375 23.488281 198.96875 25.273438 201.90625 C 26.460938 203.84375 26.210938 204.75 23.957031 207.15625 C 21.425781 209.84375 21.113281 210.8125 21.457031 214.5 C 22.082031 221.375 22.019531 221.46875 11.480469 233 C 4.597656 240.5625 1.96875 244.5 1.6875 247.84375 C 1.625 248.78125 1.25 252.96875 0.875 257.1875 C 0.0625 266.1875 -0.0625 274.5625 0.59375 276.34375 C 1.6875 279.46875 3.535156 280.40625 9.820312 280.9375 C 11.886719 281.125 14.480469 281.40625 15.609375 281.5625 C 17.640625 281.84375 27.273438 282.21875 50.199219 282.8125 C 69.5625 283.34375 76.035156 283.9375 79.820312 285.625 C 82.167969 286.65625 84.886719 288.84375 89.765625 293.6875 C 96.585938 300.46875 98.898438 304.15625 98.960938 308.4375 C 99.023438 312.59375 96.335938 316.125 89.609375 320.625 C 85.167969 323.59375 80.757812 327.34375 80.257812 328.5625 C 79.632812 330.09375 78.289062 335.9375 77.378906 341.125 C 76.535156 345.96875 75.878906 357.0625 76.378906 357.625 C 76.941406 358.3125 76.566406 359.71875 75.128906 362.0625 C 72.53125 366.375 70.46875 368.9375 63.210938 376.875 C 54.734375 386.15625 52.171875 390.5 52.703125 394.5 C 53.265625 398.9375 55.675781 400.84375 59.019531 399.53125 C 59.675781 399.28125 64.148438 398.4375 68.96875 397.65625 C 79.195312 396 93.769531 393.4375 105.25 391.25 C 109.722656 390.40625 118.886719 388.71875 125.578125 387.5 C 152.882812 382.5625 180.753906 376.15625 183.003906 374.3125 C 184.539062 373.03125 188.132812 367.25 195.953125 353.4375 C 203.929688 339.28125 204.304688 338.71875 208.464844 334.0625 C 227.667969 312.5625 251.378906 291.34375 267.765625 281 C 269.019531 280.1875 270.050781 279.28125 270.394531 278.625 C 270.925781 277.65625 270.925781 277.34375 270.582031 274.8125 C 269.550781 267.375 268.078125 261.75 262.292969 243.125 C 258.632812 231.34375 257.320312 225.5 256.914062 219.3125 C 256.664062 215.09375 257.070312 212.8125 258.476562 210.5 C 259.101562 209.46875 259.605469 208.34375 259.605469 207.96875 C 259.605469 207.59375 260.292969 206.65625 261.199219 205.78125 C 263.480469 203.5625 266.140625 200.15625 268.109375 196.96875 C 270.800781 192.625 279.277344 175.75 280.246094 172.8125 C 281.308594 169.625 282 165.65625 282.4375 160 C 282.625 157.6875 283 154.5 283.25 152.96875 C 284.09375 147.9375 284.125 141.78125 283.375 135.3125 C 283.03125 132.125 282.59375 126.375 282.4375 122.5 C 281.746094 106.46875 280.871094 101.21875 277.496094 93.28125 C 275.242188 87.9375 267.453125 72.59375 264.109375 66.875 C 249.5625 42.0625 232.703125 23.15625 215.253906 12.09375 C 212.6875 10.46875 211.5625 9.96875 209.621094 9.53125 C 208.308594 9.25 204.179688 8.09375 200.488281 6.96875 C 186.101562 2.59375 182.941406 1.8125 175.78125 0.78125 C 172.652344 0.3125 160.671875 -0.0625 157.640625 0.1875 Z M 174.933594 10 C 176.53125 10.15625 180.128906 10.53125 182.972656 10.8125 C 193.046875 11.75 197.265625 12.9375 204.867188 16.8125 C 207.714844 18.28125 210.589844 19.71875 211.28125 19.96875 C 212.21875 20.34375 216.097656 24.0625 226.761719 34.84375 C 241.242188 49.4375 245.058594 53.5 248.65625 57.96875 C 251.441406 61.46875 254.128906 65.625 254.753906 67.40625 C 256.320312 71.875 260.542969 78.90625 263.792969 82.40625 C 267.171875 86.09375 269.832031 90.78125 271.394531 95.84375 C 272.175781 98.375 272.238281 99.03125 272.238281 104.21875 C 272.269531 108.65625 272.175781 110.03125 271.800781 110.78125 C 270.769531 112.8125 269.457031 112.09375 267.109375 108.125 C 264.953125 104.5 263.511719 103.3125 261.511719 103.53125 C 260.792969 103.625 259.949219 103.90625 259.667969 104.15625 C 259.039062 104.8125 259.445312 106.25 261.324219 109.96875 C 263.074219 113.4375 264.265625 116.40625 266.515625 123.03125 C 267.515625 126 268.644531 129.03125 269.050781 129.75 C 269.675781 130.96875 269.738281 131.65625 269.863281 136.875 C 270.082031 145.75 269.332031 156.53125 268.015625 163.375 C 267.703125 165.15625 267.421875 167.34375 267.421875 168.28125 C 267.421875 170.59375 266.609375 172.5625 264.203125 176.1875 C 258.382812 184.84375 251.910156 191.25 249.75 190.4375 C 249.09375 190.1875 248.65625 189.03125 248.65625 187.65625 C 248.65625 185.28125 246.96875 185.6875 243.089844 189.0625 C 238.429688 193.0625 236.363281 196.375 236.050781 200.25 C 235.957031 201.5 235.613281 203.8125 235.332031 205.375 C 234.800781 208.125 234.800781 208.21875 235.363281 208.625 C 235.675781 208.875 236.488281 209.0625 237.144531 209.0625 C 239.242188 209.0625 240.992188 210.34375 241.933594 212.59375 C 242.339844 213.59375 242.339844 213.875 241.964844 214.8125 C 241.335938 216.3125 239.460938 217.125 235.175781 217.65625 C 230.453125 218.28125 229.265625 218.78125 230.296875 219.625 C 231.703125 220.78125 239.179688 223.75 240.710938 223.75 C 241.773438 223.75 242.183594 224.53125 242.339844 227.03125 C 242.496094 229.75 242.152344 230.84375 240.710938 232.125 C 239.304688 233.34375 234.113281 235.5625 227.324219 237.84375 C 222.007812 239.59375 220.851562 240.15625 210.9375 245.46875 C 190.480469 256.46875 181.597656 261.90625 172.183594 269.25 C 170.996094 270.1875 168.523438 271.6875 166.710938 272.5625 C 162.363281 274.65625 143.65625 284.5625 139.496094 286.96875 C 134.273438 289.9375 130.613281 292.3125 126.863281 295.125 C 124.953125 296.5625 122.828125 298 122.140625 298.375 C 121.449219 298.71875 119.761719 299.8125 118.386719 300.8125 C 117.007812 301.8125 115.007812 303.21875 113.914062 303.96875 C 112.003906 305.25 111.910156 305.28125 111.035156 304.84375 C 109.910156 304.28125 108.5625 302.53125 107.34375 300.15625 C 105.875 297.25 100.933594 291.8125 87.328125 278.09375 L 80.601562 271.3125 L 71.34375 271.125 C 61.679688 270.90625 55.644531 270.5 53.234375 269.875 C 51.011719 269.34375 50.855469 268.03125 52.421875 263.03125 C 53.203125 260.5 53.390625 258.59375 52.890625 258.28125 C 52.703125 258.1875 52.390625 258.5 52.171875 258.96875 C 51.640625 260.09375 49.761719 261.03125 45.695312 262.1875 C 40.910156 263.53125 37.46875 264.125 33.75 264.1875 C 30.589844 264.25 30.339844 264.3125 28.902344 265.25 C 28.054688 265.78125 26.085938 267.53125 24.554688 269.125 C 20.363281 273.4375 19.453125 273.75 12.042969 273.0625 L 7.664062 272.65625 L 7.757812 263.59375 C 7.945312 248.8125 8.414062 247.4375 15.640625 240.3125 C 19.046875 236.9375 20.769531 234.96875 22.332031 232.59375 C 24.523438 229.28125 26.367188 227.34375 27.054688 227.625 C 27.835938 227.90625 28.273438 226.84375 28.648438 223.84375 C 28.996094 221.15625 29.121094 220.78125 30.027344 219.84375 C 30.589844 219.25 32.652344 218 34.6875 217.03125 C 42.414062 213.28125 42.257812 212.09375 34.03125 212.25 C 29.121094 212.34375 28.773438 212.21875 28.773438 210.15625 C 28.773438 207.65625 30.652344 206.40625 34.84375 206.03125 C 39.566406 205.65625 45.789062 207.25 52.703125 210.59375 C 57.144531 212.78125 59.929688 214.75 61.210938 216.59375 C 62.023438 217.84375 62.242188 217.96875 63.367188 217.96875 C 64.402344 217.96875 64.902344 218.1875 65.964844 219.15625 C 67.527344 220.5625 69.375 220.78125 70.1875 219.625 C 71.125 218.28125 70.71875 211.3125 69.59375 209.8125 C 69.1875 209.25 69.15625 209.25 68.527344 209.8125 C 68.152344 210.15625 67.871094 210.65625 67.871094 210.9375 C 67.871094 212.0625 64.746094 212.5625 62.179688 211.84375 C 61.242188 211.59375 60.992188 211.375 60.992188 210.8125 C 60.992188 209.8125 59.300781 207.375 56.894531 204.9375 C 54.890625 202.90625 53.453125 202.125 52.703125 202.6875 C 50.761719 204.125 50.511719 204.21875 48.417969 204.1875 C 45.882812 204.1875 44.882812 203.59375 44.257812 201.78125 C 44.039062 201.125 43.632812 200.34375 43.351562 200.03125 C 42.382812 198.96875 39.253906 197.71875 35 196.6875 C 29.996094 195.46875 28.429688 194.84375 25.960938 193.09375 C 22.769531 190.84375 21.769531 188.59375 22.957031 186.3125 C 25.085938 182.21875 35.4375 179.875 44.289062 181.46875 C 47.011719 181.9375 47.292969 181.9375 48.605469 181.4375 C 50.417969 180.75 51.984375 179 52.859375 176.6875 C 53.890625 173.96875 54.171875 166.25 53.234375 166.25 C 53.109375 166.25 52.484375 167.21875 51.859375 168.375 C 49.667969 172.375 46.949219 174.6875 44.382812 174.6875 C 43.789062 174.6875 42.476562 174.28125 41.410156 173.78125 C 38.847656 172.5625 36.9375 172.1875 31.808594 171.84375 C 25.835938 171.46875 23.488281 170.71875 21.644531 168.625 C 20.488281 167.3125 20.113281 165.6875 20.613281 164.0625 C 21.238281 161.96875 24.835938 157.5625 33.71875 148 C 43.289062 137.6875 47.261719 133.09375 49.542969 129.625 C 50.542969 128.125 50.699219 127.6875 50.511719 126.8125 C 50.199219 125.40625 49.292969 123.65625 47.699219 121.40625 C 45.164062 117.8125 44.664062 116.34375 45.382812 114.46875 C 45.570312 114 46.070312 111.90625 46.507812 109.875 C 47.636719 104.5 48.761719 101.59375 52.484375 94.3125 C 55.328125 88.8125 55.800781 87.65625 55.769531 86.53125 C 55.675781 84.65625 56.082031 83.125 57.863281 78.28125 C 58.738281 75.9375 59.582031 73.0625 59.738281 71.875 C 59.894531 70.65625 60.679688 67.96875 61.429688 65.84375 C 62.179688 63.75 63.460938 60 64.242188 57.5 C 65.933594 52.25 68.121094 47.53125 70.125 44.8125 C 70.90625 43.78125 73.816406 40.9375 76.597656 38.5 L 81.664062 34.03125 L 89.546875 30.15625 C 93.894531 28.03125 98.867188 25.34375 100.621094 24.21875 C 103.621094 22.28125 104.183594 22.03125 108.910156 20.75 C 138.558594 12.625 162.769531 8.6875 174.933594 10 Z M 246.625 239.6875 C 248.3125 241.25 248.625 242.375 249.59375 250.15625 C 250.910156 260.8125 252.347656 266.0625 255.195312 270.375 C 257.789062 274.28125 257.851562 276.25 255.445312 276.90625 C 250.09375 278.3125 232.484375 291.8125 219.128906 304.6875 C 214.78125 308.875 209.652344 314.6875 202.992188 322.96875 C 195.796875 331.90625 182.972656 351.53125 178.46875 360.53125 L 176.71875 364.03125 L 174.152344 365.25 C 168.898438 367.71875 163.800781 369.09375 150.601562 371.53125 C 136.839844 374.0625 117.886719 378.03125 106.34375 380.78125 C 102.464844 381.6875 98.804688 382.53125 98.210938 382.65625 C 97.617188 382.78125 92.894531 383.8125 87.734375 385 C 72.5 388.4375 68.183594 389.09375 67.277344 388.03125 C 66.777344 387.40625 68.089844 385.5 73.316406 379.25 C 75.753906 376.3125 79.726562 371.4375 82.105469 368.4375 C 93.050781 354.6875 108.03125 338.5625 133.367188 313.28125 C 157.640625 289.0625 170.617188 277.65625 188.226562 265.1875 C 204.898438 253.40625 224.699219 243.34375 239.117188 239.375 C 242.246094 238.5 245.496094 238.625 246.625 239.6875 Z M 149.507812 288.4375 C 149.507812 288.84375 145.660156 293.125 138.402344 300.78125 C 135.117188 304.21875 129.800781 309.90625 126.550781 313.4375 C 116.914062 323.875 98.679688 342.90625 93.175781 348.28125 C 88.640625 352.71875 85.511719 355.3125 84.699219 355.3125 C 84.542969 355.3125 84.292969 354.96875 84.105469 354.5625 C 83.511719 353.3125 84.167969 349.53125 87.265625 336.40625 C 89.171875 328.375 89.765625 327.53125 97.179688 322.53125 C 100.246094 320.46875 104.214844 317.625 106.03125 316.1875 C 107.84375 314.75 110.378906 312.96875 111.660156 312.21875 C 114.695312 310.5 117.039062 308.8125 122.265625 304.625 C 124.609375 302.75 128.800781 299.6875 131.617188 297.875 C 134.429688 296.03125 138.058594 293.59375 139.683594 292.40625 C 143.1875 289.9375 144.0625 289.46875 146.378906 288.71875 C 148.347656 288.09375 149.507812 287.96875 149.507812 288.4375 Z M 149.507812 288.4375 "/>
<path style=" stroke:none;fill-rule:nonzero;fill:rgb(0%,0%,0%);fill-opacity:1;" d="M 181.535156 51.875 C 180.441406 52.3125 180.378906 52.78125 181.222656 54.0625 C 182.191406 55.5625 188.507812 62 189.480469 62.46875 C 190.074219 62.78125 190.167969 62.75 190.167969 62.1875 C 190.167969 61.1875 188.667969 56.96875 187.570312 54.90625 C 186.289062 52.46875 185.164062 51.5625 183.503906 51.59375 C 182.785156 51.59375 181.878906 51.71875 181.535156 51.875 Z M 181.535156 51.875 "/>
<path style=" stroke:none;fill-rule:nonzero;fill:rgb(0%,0%,0%);fill-opacity:1;" d="M 165.800781 55.375 C 165.050781 55.71875 162.800781 56.34375 160.796875 56.75 C 156.136719 57.75 156.074219 57.75 156.074219 58.34375 C 156.074219 59.71875 165.269531 67.4375 171.621094 71.4375 C 175.90625 74.125 177.28125 74.75 179.125 74.8125 C 180.535156 74.84375 180.910156 75 181.847656 75.90625 C 183.035156 77.0625 184.320312 77.15625 184.476562 76.09375 C 184.601562 75.25 182.503906 72.0625 179.6875 68.75 C 175.5 63.8125 173.652344 60.96875 173.152344 58.6875 C 172.902344 57.625 171.308594 55.75 170.117188 55.125 C 168.929688 54.53125 167.460938 54.625 165.800781 55.375 Z M 165.800781 55.375 "/>
<path style=" stroke:none;fill-rule:nonzero;fill:rgb(0%,0%,0%);fill-opacity:1;" d="M 205.492188 64.5 C 205.492188 65.3125 208.183594 68.53125 214 74.6875 C 219.441406 80.46875 223.945312 84.6875 224.605469 84.6875 C 225.136719 84.6875 224.007812 82.5 221.664062 78.9375 C 215.972656 70.375 212.6875 66.90625 208.246094 64.84375 C 206.371094 63.96875 205.492188 63.875 205.492188 64.5 Z M 205.492188 64.5 "/>
<path style=" stroke:none;fill-rule:nonzero;fill:rgb(0%,0%,0%);fill-opacity:1;" d="M 149.039062 66.53125 C 148.820312 67.25 149.226562 68.28125 150.257812 69.65625 C 151.382812 71.15625 151.289062 71.34375 149.789062 70.5625 C 148.789062 70.0625 148.441406 70 148.253906 70.3125 C 147.160156 72.09375 154.449219 83.71875 160.046875 89.125 C 163.238281 92.25 167.742188 94.125 172.808594 94.53125 C 175.28125 94.71875 175.5625 94.6875 175.152344 94.28125 C 173.746094 92.90625 167.523438 87.75 165.738281 86.46875 C 163.269531 84.71875 161.859375 82.9375 159.203125 78.28125 C 153.886719 68.90625 149.789062 64.15625 149.039062 66.53125 Z M 149.039062 66.53125 "/>
<path style=" stroke:none;fill-rule:nonzero;fill:rgb(0%,0%,0%);fill-opacity:1;" d="M 222.976562 71.15625 C 223.289062 71.65625 224.230469 72.65625 225.042969 73.4375 C 225.855469 74.21875 228.734375 77.3125 231.453125 80.3125 C 234.144531 83.3125 237.394531 86.625 238.648438 87.65625 C 239.929688 88.6875 242.183594 90.6875 243.683594 92.09375 C 248.96875 97 249.59375 95.59375 245.683594 87.65625 C 241.617188 79.34375 238.773438 75.40625 235.863281 73.9375 C 233.144531 72.5625 225.355469 70.3125 223.289062 70.3125 L 222.351562 70.3125 Z M 222.976562 71.15625 "/>
<path style=" stroke:none;fill-rule:nonzero;fill:rgb(0%,0%,0%);fill-opacity:1;" d="M 248.03125 74.59375 C 246.5625 75.15625 247.28125 76.78125 250.15625 79.59375 C 252.566406 81.96875 256.351562 84.6875 257.226562 84.6875 C 258.039062 84.6875 257.820312 83.65625 256.539062 81.6875 C 254.910156 79.21875 252.253906 76.34375 250.5625 75.25 C 249.125 74.34375 248.875 74.28125 248.03125 74.59375 Z M 248.03125 74.59375 "/>
<path style=" stroke:none;fill-rule:nonzero;fill:rgb(0%,0%,0%);fill-opacity:1;" d="M 137.246094 78.625 C 136.902344 78.9375 137.558594 80.65625 138.464844 81.84375 C 139.527344 83.28125 139.84375 83.46875 140.34375 83.09375 C 140.625 82.84375 140.96875 83.25 141.65625 84.625 C 142.90625 87.125 144.0625 88.4375 145.003906 88.4375 C 146.003906 88.4375 146.003906 87.625 144.972656 85.6875 C 144.566406 84.875 144.03125 83.3125 143.8125 82.1875 L 143.40625 80.1875 L 141.6875 79.3125 C 140.09375 78.53125 137.714844 78.15625 137.246094 78.625 Z M 137.246094 78.625 "/>
<path style=" stroke:none;fill-rule:nonzero;fill:rgb(0%,0%,0%);fill-opacity:1;" d="M 192.105469 88.65625 C 191.730469 88.71875 191.199219 89.125 190.917969 89.53125 C 190.511719 90.1875 190.511719 90.375 190.917969 91.375 C 191.542969 92.84375 194.484375 95.9375 196.890625 97.65625 C 199.269531 99.34375 202.898438 101.15625 206.808594 102.625 C 209.996094 103.8125 211.125 104 211.125 103.34375 C 211.125 102.875 204.117188 96.03125 201.082031 93.53125 C 198.082031 91.125 195.296875 89.25 193.953125 88.8125 C 193.359375 88.59375 192.886719 88.46875 192.855469 88.46875 C 192.824219 88.5 192.511719 88.59375 192.105469 88.65625 Z M 192.105469 88.65625 "/>
<path style=" stroke:none;fill-rule:nonzero;fill:rgb(0%,0%,0%);fill-opacity:1;" d="M 142.9375 90.4375 C 142.9375 91 144.753906 93.4375 146.691406 95.46875 C 148.726562 97.625 150.695312 100.21875 151.195312 101.40625 C 151.445312 101.96875 151.945312 102.5 152.289062 102.59375 C 153.886719 103 153.292969 101.03125 150.632812 97.0625 C 148.347656 93.65625 146.847656 91.96875 145.160156 90.875 C 143.59375 89.90625 142.9375 89.78125 142.9375 90.4375 Z M 142.9375 90.4375 "/>
<path style=" stroke:none;fill-rule:nonzero;fill:rgb(0%,0%,0%);fill-opacity:1;" d="M 141.28125 102.0625 C 140.875 102.46875 141.0625 107 141.53125 108.84375 C 142.34375 111.90625 143.46875 113.75 146.503906 116.71875 C 149.632812 119.84375 155.105469 124.5 155.355469 124.25 C 155.542969 124.09375 150.070312 115 145.660156 108.09375 C 141.6875 101.9375 141.5625 101.78125 141.28125 102.0625 Z M 141.28125 102.0625 "/>
<path style=" stroke:none;fill-rule:nonzero;fill:rgb(0%,0%,0%);fill-opacity:1;" d="M 171.871094 105 C 171.214844 106.0625 172.652344 107.5 174.339844 107.5 C 175.152344 107.5 177.28125 108.8125 177.875 109.71875 C 178.53125 110.625 180.222656 111.46875 181.441406 111.5 C 182.785156 111.53125 184.289062 112.125 189.355469 114.5 C 195.078125 117.21875 198.488281 118.375 201.613281 118.75 C 210.183594 119.71875 221.007812 118.21875 223.039062 115.75 C 223.445312 115.25 223.351562 115.21875 221.507812 115.40625 C 218.597656 115.65625 214.65625 114.75 205.648438 111.71875 C 195.265625 108.25 191.230469 107.375 179.847656 106.09375 C 175.96875 105.625 174.621094 105.40625 172.777344 104.84375 C 172.371094 104.71875 171.996094 104.78125 171.871094 105 Z M 171.871094 105 "/>
<path style=" stroke:none;fill-rule:nonzero;fill:rgb(0%,0%,0%);fill-opacity:1;" d="M 73.09375 112.5 C 71.75 112.90625 71.40625 113.3125 70.53125 115.65625 C 70.0625 116.84375 69.5625 117.875 69.40625 118 C 69.25 118.09375 68.464844 117.75 67.652344 117.21875 C 65.871094 116.03125 65.058594 116 62.679688 117.0625 C 61.304688 117.6875 60.054688 117.9375 57.738281 118.09375 C 55.046875 118.28125 54.609375 118.375 54.078125 119.03125 C 52.453125 121 54.359375 124.40625 58.363281 126.75 C 60.773438 128.15625 61.929688 129.625 61.929688 131.28125 C 61.929688 132.8125 62.835938 133.875 65.027344 135 C 67.089844 136.03125 67.871094 137 67.871094 138.53125 C 67.871094 140.4375 68.371094 140.5 72.1875 139.25 C 75.847656 138.03125 78.476562 137.75 79.789062 138.46875 C 80.226562 138.6875 82.199219 138.9375 84.355469 139.0625 C 88.015625 139.21875 88.203125 139.28125 89.109375 140.125 C 89.859375 140.84375 90.421875 141.0625 91.800781 141.1875 C 93.207031 141.3125 93.550781 141.21875 93.707031 140.8125 C 94.394531 139.03125 86.105469 134.25 78.539062 132.03125 C 73.972656 130.71875 72.65625 130.09375 71.1875 128.5625 C 69.21875 126.53125 69.28125 125.09375 71.375 124.1875 C 72.625 123.625 73.753906 123.59375 87.109375 123.59375 C 101.808594 123.59375 103.839844 123.4375 104.246094 122.375 C 104.6875 121.28125 102.371094 120.0625 94.925781 117.5 C 91.832031 116.4375 87.734375 114.9375 85.824219 114.1875 C 83.105469 113.125 81.664062 112.78125 79.164062 112.53125 C 75.472656 112.125 74.316406 112.125 73.09375 112.5 Z M 73.09375 112.5 "/>
<path style=" stroke:none;fill-rule:nonzero;fill:rgb(0%,0%,0%);fill-opacity:1;" d="M 144.503906 127.15625 C 144.503906 129.375 153.792969 139.34375 157.480469 141.0625 C 159.515625 142.03125 160.328125 142.96875 160.734375 144.65625 C 160.890625 145.40625 161.203125 146.15625 161.453125 146.3125 C 162.457031 146.96875 165.113281 145.84375 168.929688 143.09375 C 174.027344 139.46875 177.46875 138.25 182.285156 138.5 C 184.851562 138.625 185.382812 138.75 187.726562 139.90625 C 190.792969 141.4375 194.171875 144.53125 195.640625 147.21875 C 196.546875 148.875 196.578125 149.03125 196.578125 153.125 C 196.578125 160.0625 194.453125 167.90625 192.011719 170.09375 L 190.792969 171.21875 L 190.792969 174.125 C 190.792969 179.65625 189.105469 183.625 185.257812 187.09375 C 182.566406 189.53125 180.191406 191.90625 177.5 194.78125 C 175.34375 197.0625 174.027344 197.6875 168.429688 198.96875 C 162.269531 200.40625 160.671875 200.15625 156.917969 197.125 C 155.886719 196.3125 154.917969 195.71875 154.792969 195.8125 C 154.355469 196.0625 154.449219 198.03125 154.949219 199.15625 C 155.167969 199.71875 155.824219 200.65625 156.386719 201.25 C 158.015625 203.03125 158.828125 204.40625 159.671875 206.84375 C 160.515625 209.34375 161.109375 210.21875 162.269531 210.65625 C 163.457031 211.125 165.550781 209.96875 168.242188 207.40625 C 171.746094 204.0625 171.871094 203.96875 173.371094 203.90625 C 174.277344 203.875 175.78125 203.375 177.75 202.40625 C 179.40625 201.59375 180.910156 200.9375 181.128906 200.9375 C 181.722656 200.9375 183.410156 199.78125 186.632812 197.15625 C 189.855469 194.53125 192.855469 192.8125 194.203125 192.8125 C 195.296875 192.8125 196.796875 193.75 197.769531 195.0625 C 198.238281 195.65625 199.363281 197.78125 200.332031 199.8125 C 201.300781 201.84375 202.117188 203.46875 202.179688 203.40625 C 202.242188 203.34375 202.617188 202.15625 203.023438 200.78125 C 203.742188 198.40625 203.773438 197.84375 203.773438 188.75 C 203.773438 180.875 203.867188 179.0625 204.242188 178.3125 C 205.210938 176.40625 206.335938 176.4375 208.964844 178.4375 C 210.90625 179.90625 211.8125 180.21875 212.96875 179.8125 C 213.96875 179.4375 214.1875 178.25 213.5 176.5625 C 213.25 175.9375 212.875 173.875 212.6875 172 C 211.90625 164.0625 211.6875 162.40625 211.09375 160.25 C 210.277344 157.28125 208.433594 153.8125 206.242188 151.09375 C 204.273438 148.625 203.523438 147.3125 203.023438 145.375 C 201.929688 141.375 191.917969 134.125 184.570312 132 C 180.503906 130.84375 178.5 131 174.527344 132.90625 C 172.902344 133.6875 170.804688 134.46875 169.898438 134.65625 C 164.550781 135.78125 158.546875 134.1875 151.914062 129.96875 C 149.164062 128.1875 145.878906 126.5625 145.066406 126.5625 C 144.722656 126.5625 144.503906 126.8125 144.503906 127.15625 Z M 144.503906 127.15625 "/>
<path style=" stroke:none;fill-rule:nonzero;fill:rgb(0%,0%,0%);fill-opacity:1;" d="M 202.304688 127.375 C 201.019531 127.75 201.425781 128.53125 204.742188 131.6875 C 206.589844 133.40625 210.78125 137.875 214.03125 141.5625 C 220.632812 149 224.230469 152.8125 224.636719 152.8125 C 225.417969 152.8125 223.945312 146.75 221.976562 141.875 C 219.535156 135.90625 216.566406 132.25 212.375 130.15625 C 208.714844 128.3125 203.804688 126.96875 202.304688 127.375 Z M 202.304688 127.375 "/>
<path style=" stroke:none;fill-rule:nonzero;fill:rgb(0%,0%,0%);fill-opacity:1;" d="M 104.78125 133.09375 C 102.996094 133.6875 96.710938 136.46875 96.179688 136.9375 C 95.898438 137.1875 96.148438 137.1875 102.277344 136.4375 C 107.625 135.78125 109.253906 134.9375 108.6875 133.125 C 108.4375 132.34375 107.15625 132.3125 104.78125 133.09375 Z M 104.78125 133.09375 "/>
<path style=" stroke:none;fill-rule:nonzero;fill:rgb(0%,0%,0%);fill-opacity:1;" d="M 76.316406 143.625 C 75.160156 144.4375 72.625 145.3125 71.375 145.3125 C 70.96875 145.3125 70.28125 145.03125 69.84375 144.6875 C 69.09375 144.125 67.871094 143.84375 67.871094 144.21875 C 67.871094 144.65625 68.8125 146.15625 69.5 146.78125 C 69.875 147.15625 70.84375 147.59375 71.625 147.78125 C 73.503906 148.21875 77.160156 148.1875 78.507812 147.71875 C 79.695312 147.3125 81.007812 145.625 81.007812 144.5 C 81.007812 142.8125 78.226562 142.28125 76.316406 143.625 Z M 76.316406 143.625 "/>
<path style=" stroke:none;fill-rule:nonzero;fill:rgb(0%,0%,0%);fill-opacity:1;" d="M 180.472656 146.96875 C 177.28125 147.6875 173.464844 150.125 171.496094 152.6875 C 170.710938 153.75 170.617188 154.09375 170.617188 156.21875 C 170.617188 159.0625 171.589844 161.1875 173.089844 161.71875 C 173.839844 161.96875 174.058594 161.90625 174.683594 161.1875 C 175.089844 160.6875 175.59375 159.40625 175.9375 158 C 176.5625 155.125 177.8125 153.28125 179.847656 152.25 C 182.347656 151 184.882812 151.5625 187.820312 154.0625 C 190.386719 156.21875 190.574219 156.15625 190.417969 153.3125 C 190.324219 151.34375 190.167969 150.78125 189.386719 149.65625 C 187.664062 147.1875 184.128906 146.15625 180.472656 146.96875 Z M 180.472656 146.96875 "/>
<path style=" stroke:none;fill-rule:nonzero;fill:rgb(0%,0%,0%);fill-opacity:1;" d="M 167.710938 170.0625 C 165.394531 175.84375 165.175781 178.09375 166.929688 179.25 C 168.273438 180.15625 171.058594 180.6875 174.589844 180.75 C 179.375 180.8125 180.847656 179.6875 184.507812 173.3125 C 186.039062 170.59375 187.257812 167.625 186.945312 167.3125 C 186.851562 167.21875 185.476562 168.3125 183.878906 169.71875 C 178.3125 174.5625 176.84375 175.0625 174.402344 172.8125 C 173.652344 172.125 172.214844 170.5 171.214844 169.21875 C 170.210938 167.9375 169.304688 166.875 169.179688 166.875 C 169.085938 166.875 168.429688 168.3125 167.710938 170.0625 Z M 167.710938 170.0625 "/>
<path style=" stroke:none;fill-rule:nonzero;fill:rgb(0%,0%,0%);fill-opacity:1;" d="M 58.113281 179.4375 C 57.675781 180.71875 59.800781 187.96875 61.773438 191.84375 C 62.835938 193.96875 64.839844 196.5625 65.402344 196.5625 C 65.839844 196.5625 65.371094 194.8125 63.648438 189.84375 C 60.867188 181.875 58.675781 177.75 58.113281 179.4375 Z M 58.113281 179.4375 "/>
<path style=" stroke:none;fill-rule:nonzero;fill:rgb(0%,0%,0%);fill-opacity:1;" d="M 46.445312 188.09375 C 46.226562 188.5 51.078125 193.5625 51.515625 193.40625 C 52.109375 193.1875 51.140625 190.9375 49.980469 189.8125 C 48.824219 188.65625 46.730469 187.65625 46.445312 188.09375 Z M 46.445312 188.09375 "/>
<path style=" stroke:none;fill-rule:nonzero;fill:rgb(0%,0%,0%);fill-opacity:1;" d="M 211.75 199.5 C 211.75 199.75 212.09375 201.4375 212.53125 203.25 C 213.03125 205.3125 213.28125 206.9375 213.15625 207.5625 C 212.96875 208.46875 213.15625 208.8125 214.78125 210.71875 C 216.535156 212.78125 219.066406 215 219.628906 215 C 220.414062 215 220.101562 213.71875 218.535156 210.375 C 217.566406 208.375 216.566406 205.96875 216.316406 205.0625 C 215.785156 203.25 215.03125 202 213.34375 200.21875 C 212.1875 199 211.75 198.78125 211.75 199.5 Z M 211.75 199.5 "/>
<path style=" stroke:none;fill-rule:nonzero;fill:rgb(0%,0%,0%);fill-opacity:1;" d="M 38.160156 223.9375 C 36.28125 224.28125 35.875 224.4375 34.71875 225.5 C 32.871094 227.15625 32.214844 229.5625 32.027344 235.3125 L 31.839844 239.84375 L 35.5625 236.09375 C 38.316406 233.3125 39.566406 231.78125 40.410156 230.15625 C 41.566406 227.90625 42.164062 225.1875 41.660156 224.4375 C 41.347656 224 39.441406 223.71875 38.160156 223.9375 Z M 38.160156 223.9375 "/>
<path style=" stroke:none;fill-rule:nonzero;fill:rgb(0%,0%,0%);fill-opacity:1;" d="M 72.09375 239.0625 C 71 240.1875 70.28125 240.46875 69.4375 240 C 68.496094 239.5 67.621094 240.125 67.214844 241.65625 C 67.027344 242.375 66.308594 244.6875 65.652344 246.8125 C 64.527344 250.40625 64.085938 253.4375 64.714844 253.4375 C 65.308594 253.4375 67.996094 251.0625 70.0625 248.65625 C 74.472656 243.59375 75.785156 240.78125 74.535156 239.09375 C 73.660156 237.96875 73.15625 237.96875 72.09375 239.0625 Z M 72.09375 239.0625 "/>
<path style=" stroke:none;fill-rule:nonzero;fill:rgb(0%,0%,0%);fill-opacity:1;" d="M 141.03125 244.28125 C 140.4375 244.9375 138.277344 247.71875 136.214844 250.46875 C 131.179688 257.21875 127.707031 260.65625 124.015625 262.5625 C 119.074219 265.09375 113.476562 266.75 103.058594 268.75 C 93.394531 270.59375 91.644531 271.09375 91.644531 271.96875 C 91.644531 273.375 99.367188 279.375 101.183594 279.375 C 102.027344 279.375 103.058594 280.15625 106.90625 283.71875 C 111.566406 288 113.570312 289.375 115.289062 289.375 C 116.445312 289.375 120.855469 284.90625 123.828125 280.6875 C 129.269531 273.03125 137.996094 257.0625 141.34375 248.59375 C 143.3125 243.625 143.1875 241.875 141.03125 244.28125 Z M 141.03125 244.28125 "/>
</g>
</svg>
